<svg id="logo" xmlns="http://www.w3.org/2000/svg" width="164.539" height="35" viewBox="0 0 164.539 35">
  <text id="EduTrek" transform="translate(56.539 28)" fill="#f8f8f8" font-size="29" font-family="ProductSans-Bold, Product Sans" font-weight="700"><tspan x="0" y="0">EduTrek</tspan></text>
  <path id="Subtraction_1" data-name="Subtraction 1" d="M48.08,6.709,26.288.014a6.241,6.241,0,0,0-3.655,0L.84,6.709a1.839,1.839,0,0,0,0,3.562l3.8,1.167a6.156,6.156,0,0,0-1.4,3.664,2.411,2.411,0,0,0-.2,4.142L1.048,28.219a1.25,1.25,0,0,0,1.22,1.521H6.652a1.25,1.25,0,0,0,1.22-1.521L5.877,19.244a2.4,2.4,0,0,0-.141-4.1,3.685,3.685,0,0,1,1.616-2.869l15.279,4.695a6.248,6.248,0,0,0,3.655,0l21.793-6.7A1.84,1.84,0,0,0,48.08,6.709ZM27.022,19.357a8.746,8.746,0,0,1-5.124,0l-11.33-3.48L9.46,24.74c0,2.762,6.716,5,15,5s15-2.238,15-5l-1.108-8.865Z" transform="translate(0.539 0.396)" fill="#f8f8f8"/>
</svg>
